<svg width="1200" height="720" viewBox="0 0 1200 720" fill="none" xmlns="http://www.w3.org/2000/svg">
  <rect width="1200" height="720" fill="#F4FAFF"/>
  <rect x="110" y="150" width="980" height="440" rx="42" fill="#FFFFFF"/>
  <rect x="170" y="210" width="300" height="320" rx="26" fill="#D8EEFF"/>
  <rect x="510" y="210" width="520" height="144" rx="26" fill="#C6E2FF"/>
  <rect x="510" y="386" width="520" height="144" rx="26" fill="#E3F1FF"/>
  <rect x="230" y="260" width="180" height="28" rx="14" fill="#2A7FFF"/>
  <rect x="230" y="310" width="130" height="54" rx="27" fill="#12335B"/>
  <rect x="580" y="252" width="282" height="20" rx="10" fill="#2A7FFF"/>
  <rect x="580" y="292" width="390" height="18" rx="9" fill="#72AEFF"/>
  <rect x="580" y="426" width="220" height="20" rx="10" fill="#12335B"/>
  <rect x="580" y="466" width="326" height="18" rx="9" fill="#72AEFF"/>
  <circle cx="320" cy="420" r="58" fill="#2A7FFF" fill-opacity="0.16"/>
  <path d="M320 388V452" stroke="#2A7FFF" stroke-width="16" stroke-linecap="round"/>
  <path d="M288 420H352" stroke="#2A7FFF" stroke-width="16" stroke-linecap="round"/>
</svg>
